<svg id="surface1" xmlns="http://www.w3.org/2000/svg" width="128" height="280.352" viewBox="0 0 128 280.352">
  <path id="Path_4" data-name="Path 4" d="M54.355,32.551l-7.363,11.9c-2.281,4.027-4.734,8.051-7.016,12.074C35.242,64.574,31.035,72.8,26.828,81.2c-4.035,8.4-7.891,16.8-11.4,25.375a254.449,254.449,0,0,0-9.117,26.074l-3.156-3.5,27.879-4.375c9.293-1.4,18.586-2.8,28.055-4.2L65.4,119.7l-2.98,5.6-8.066,15.4c-2.629,5.074-5.434,10.153-8.066,15.4L30.684,187.25l-3.5-4.375L61.547,174.3l5.961-1.4-2.8,5.426a253.4,253.4,0,0,0-10.7,24.5c-3.156,8.4-6.137,16.8-8.941,25.375-2.629,8.574-5.258,17.153-7.539,25.9-2.453,8.75-4.559,17.5-6.488,26.25.7-4.375,1.4-8.926,2.105-13.3.875-4.375,1.578-8.926,2.453-13.3s1.93-8.926,2.98-13.3,2.105-8.75,3.332-13.125c2.457-8.75,4.91-17.5,7.891-26.074a263.277,263.277,0,0,1,10.172-25.375l3.156,4.023-34.2,9.278-6.484,1.75,2.981-6.125L40.68,153.648c2.629-5.25,5.262-10.324,8.066-15.4l8.238-15.4,3.332,4.722C51.023,128.8,41.73,130.2,32.262,131.6L4.207,135.449,0,135.977l1.227-4.028c1.4-4.722,2.98-9.1,4.734-13.472s3.508-8.75,5.437-12.954q5.783-12.861,12.625-25.2C26.3,76.3,28.582,72.1,31.035,68.25c2.457-4.023,4.91-7.875,7.363-11.9s5.262-7.7,7.891-11.551C48.922,40.074,51.727,36.4,54.355,32.551Zm0,0" fill="#debc1c"/>
  <path id="Path_5" data-name="Path 5" d="M98.191,0c-3.332,4.2-6.84,8.4-10.168,12.773-3.156,4.375-6.664,8.578-9.645,13.125l-4.734,6.652-4.559,6.824L66.8,42.7l-2.1,3.5-4.211,6.824C54.883,62.3,49.8,71.75,45.063,81.375a257.523,257.523,0,0,0-12.449,29.574l-3.156-3.676L60.141,102.2l30.688-4.9,7.363-1.227L93.984,102.2c-3.332,4.9-6.488,9.977-9.645,15.051s-6.312,10.324-9.293,15.4c-6.137,10.329-11.922,20.829-17.887,31.329l-3.5-4.375,34.191-8.926,6.137-1.574L91,154.523c-4.559,8.227-8.77,16.625-12.8,25.028s-8.066,16.972-11.75,25.551c-3.855,8.574-7.363,17.324-10.7,26.074L53.3,237.824l-2.281,6.653c-1.578,4.375-2.98,8.921-4.559,13.3,2.281-9.1,4.734-18.375,7.539-27.3S59.969,212.449,63.3,203.7s7.016-17.5,10.871-26.25c3.859-8.574,7.891-17.148,12.277-25.722l3.156,3.847L55.234,165.727l-6.84,1.921,3.332-6.3c5.609-10.676,11.57-21.176,17.711-31.676,5.961-10.5,12.273-20.824,19.285-30.977l3.156,4.9L61.2,108.324l-30.688,4.551-4.559.7,1.578-4.375c1.93-5.426,4.035-10.324,6.313-15.4,1.23-2.449,2.281-4.9,3.508-7.352L41.031,79.1c5.082-9.625,10.7-19.078,16.656-28.176L62.246,44.1l2.281-3.328,2.453-3.324,4.91-6.648,5.086-6.477c3.332-4.375,7.012-8.4,10.52-12.6C90.652,7.875,94.508,4.023,98.191,0Zm0,0" fill="#3c3d3b"/>
  <path id="Path_6" data-name="Path 6" d="M98.191,23.1c-4.207,5.422-8.066,11.023-11.922,16.8-3.684,5.777-7.367,11.551-10.7,17.5S68.91,69.3,65.754,75.25s-6.312,12.074-9.117,18.2L54.18,90.125c11.047-1.75,22.27-3.5,33.316-5.25s22.27-3.5,33.488-5.074l6.84-1.051-3.683,5.773-17.707,28L88.547,140.352l-3.156-4.727c11.926-1.75,23.672-3.5,35.593-5.074L128,129.5l-4.383,5.6c-2.8,3.671-5.613,7.7-8.418,11.722s-5.433,8.227-7.89,12.25c-5.082,8.227-9.993,16.8-14.9,25.2l-7.016,12.954c-2.453,4.375-4.559,8.574-6.836,12.949L71.891,223.3,65.4,236.426l5.438-13.653c1.926-4.546,3.855-9.1,5.785-13.472,4.031-8.926,8.066-17.852,12.449-26.778,4.383-8.75,8.941-17.5,14.028-26.074a252.311,252.311,0,0,1,16.132-25.023l2.629,4.551c-11.75,1.921-23.672,3.847-35.418,5.773l-6.84,1.051,3.684-5.778,17.707-28L118.883,81.2l3.156,4.727C110.816,87.5,99.77,88.9,88.547,90.477s-22.441,2.8-33.488,4.2L50.5,95.2l2.1-4.023c3.156-6.125,6.488-12.074,10-18.027s7.012-11.723,10.871-17.5,7.715-11.375,11.746-16.8A154.1,154.1,0,0,1,98.191,23.1Zm0,0" fill="#828b84"/>
</svg>
